<svg data-v-423bf9ae="" xmlns="http://www.w3.org/2000/svg" viewBox="0 0 407.491481790947 178" class="iconAbove"><!----><!----><!----><g data-v-423bf9ae="" id="9dea1301-f374-4679-a761-2b8eb590ab60" fill="black" transform="matrix(4.101162231157369,0,0,4.101162231157369,-2.29665414245207,102.73921879505849)"><path d="M5.03 15.12C5.03 15.99 4.70 16.23 4.23 16.23C3.58 16.23 3.36 15.97 3.32 15.33L0.73 15.33C0.73 17.05 1.54 18.24 4.14 18.24C6.30 18.24 7.74 17.29 7.74 14.90L7.74 6.85L5.18 6.85L5.07 7.34C4.72 6.97 4.19 6.68 3.28 6.68C1.89 6.68 0.56 7.80 0.56 9.98L0.56 11.42C0.56 13.69 1.68 14.87 3.56 14.87C4.21 14.87 4.68 14.71 5.03 14.41ZM5.03 11.47C5.03 12.25 4.77 12.49 4.16 12.49C3.54 12.49 3.29 12.25 3.29 11.47L3.29 10.08C3.29 9.34 3.58 9.06 4.16 9.06C4.70 9.06 5.03 9.32 5.03 10.07ZM11.73 10.08C11.73 9.30 11.98 9.06 12.60 9.06C13.22 9.06 13.47 9.30 13.47 10.08L13.47 12.17C13.47 12.95 13.22 13.19 12.60 13.19C11.98 13.19 11.73 12.95 11.73 12.17ZM12.60 6.68C10.16 6.68 9.00 7.85 9.00 10.12L9.00 12.12C9.00 14.39 10.16 15.57 12.60 15.57C15.04 15.57 16.20 14.39 16.20 12.12L16.20 10.12C16.20 7.85 15.04 6.68 12.60 6.68ZM21.15 10.02C20.09 9.88 19.99 9.62 19.99 9.28C19.99 8.90 20.26 8.67 20.73 8.67C21.35 8.67 21.62 9.03 21.62 9.59L24.11 9.59C24.11 7.71 23.04 6.68 20.82 6.68C18.84 6.68 17.40 7.56 17.40 9.39C17.40 11.20 18.47 11.89 20.54 12.12C21.52 12.24 21.57 12.52 21.57 12.92C21.57 13.31 21.29 13.58 20.82 13.58C20.17 13.58 19.85 13.30 19.81 12.66L17.22 12.66C17.22 14.38 18.28 15.57 20.64 15.57C22.79 15.57 24.23 14.63 24.23 12.74C24.23 10.88 22.79 10.23 21.15 10.02ZM29.08 10.02C28.01 9.88 27.92 9.62 27.92 9.28C27.92 8.90 28.18 8.67 28.66 8.67C29.27 8.67 29.54 9.03 29.54 9.59L32.03 9.59C32.03 7.71 30.97 6.68 28.74 6.68C26.77 6.68 25.33 7.56 25.33 9.39C25.33 11.20 26.39 11.89 28.46 12.12C29.44 12.24 29.50 12.52 29.50 12.92C29.50 13.31 29.22 13.58 28.74 13.58C28.10 13.58 27.78 13.30 27.73 12.66L25.14 12.66C25.14 14.38 26.21 15.57 28.56 15.57C30.72 15.57 32.16 14.63 32.16 12.74C32.16 10.88 30.72 10.23 29.08 10.02ZM36.02 6.85L33.31 6.85L33.31 15.40L36.02 15.40ZM36.02 3.61L33.31 3.61L33.31 6.02L36.02 6.02ZM41.89 6.68C41.02 6.68 40.38 6.93 39.90 7.43L39.77 6.85L37.42 6.85L37.42 18.10L40.12 18.10L40.12 15.15C40.49 15.41 40.99 15.57 41.69 15.57C43.27 15.57 44.60 14.45 44.60 12.26L44.60 10.12C44.60 7.85 43.60 6.68 41.89 6.68ZM40.14 10.08C40.14 9.30 40.39 9.06 41.01 9.06C41.62 9.06 41.87 9.30 41.87 10.08L41.87 12.17C41.87 12.91 41.58 13.19 41.01 13.19C40.46 13.19 40.14 12.92 40.14 12.18ZM49.83 6.85L48.79 12.56L48.16 6.85L45.28 6.85L47.17 15.40L50.09 15.40L51.00 10.51L51.91 15.40L54.85 15.40L56.74 6.85L54.01 6.85L53.38 12.56L52.40 6.85ZM60.30 6.85L57.58 6.85L57.58 15.40L60.30 15.40ZM60.30 3.61L57.58 3.61L57.58 6.02L60.30 6.02ZM65.30 13.10C64.62 13.10 64.41 12.82 64.41 12.00L64.41 9.77L65.81 9.77L65.81 7.41L64.41 7.41L64.41 5.47L61.63 5.47L61.63 11.90C61.63 14.36 62.34 15.57 64.61 15.57C65.11 15.57 65.62 15.51 65.80 15.47L65.80 13.06C65.67 13.09 65.46 13.10 65.30 13.10ZM69.86 4.59L67.14 4.59L67.14 15.40L69.86 15.40L69.86 10.11C69.86 9.32 70.14 9.06 70.69 9.06C71.26 9.06 71.50 9.34 71.50 10.08L71.50 15.40L74.21 15.40L74.21 9.77C74.21 7.62 73.32 6.68 71.68 6.68C70.91 6.68 70.31 6.85 69.86 7.22ZM78.48 12.70L75.84 12.70L75.84 15.40L78.48 15.40ZM84.71 6.68C83.85 6.68 83.12 6.89 82.63 7.45L82.49 6.85L80.14 6.85L80.14 15.40L82.85 15.40L82.85 10.07C82.85 9.32 83.13 9.06 83.68 9.06C84.25 9.06 84.49 9.34 84.49 10.08L84.49 15.40L87.21 15.40L87.21 10.07C87.21 9.32 87.49 9.06 88.03 9.06C88.61 9.06 88.84 9.34 88.84 10.08L88.84 15.40L91.56 15.40L91.56 9.77C91.56 7.52 90.68 6.68 88.80 6.68C87.79 6.68 87.02 7.01 86.55 7.59C86.13 6.94 85.47 6.68 84.71 6.68ZM97.36 12.60C97.29 13.15 97.09 13.52 96.35 13.52C95.73 13.52 95.42 13.12 95.42 12.42L95.42 11.82L99.92 11.82L99.92 10.02C99.92 7.71 98.71 6.68 96.36 6.68C93.93 6.68 92.75 8.02 92.75 9.98L92.75 12.08C92.75 14.49 93.93 15.57 96.36 15.57C98.85 15.57 99.76 14.50 99.85 12.60ZM96.39 8.68C97.01 8.68 97.36 8.97 97.36 9.74L97.36 10.11L95.42 10.11L95.42 9.79C95.42 8.99 95.73 8.68 96.39 8.68Z"></path></g><!----><g data-v-423bf9ae="" id="f814e7d4-c04f-4bbf-935a-40ed6667b599" transform="matrix(1.0777776082356771,0,0,1.0777776082356771,149.97824189643882,-1.3888720406442516)" stroke="none" fill="black"><path d="M30.9 47.574a3.741 3.741 0 0 0-5.325 1.26.4.4 0 0 0 .706.378c.054-.1 1.362-2.466 4.243-.931a.4.4 0 0 0 .376-.707z"></path><circle cx="29.068" cy="50.925" r="1.494"></circle><path d="M36.37 48.127a.4.4 0 1 0 .618.508c.073-.09 1.816-2.154 4.345-.089a.4.4 0 0 0 .505-.62 3.741 3.741 0 0 0-5.468.201z"></path><circle cx="39.132" cy="50.742" r="1.494"></circle><path d="M68.746 47.825a.4.4 0 0 0 .376.706c2.863-1.525 4.189.831 4.245.932a.4.4 0 0 0 .352.209.391.391 0 0 0 .189-.048.4.4 0 0 0 .163-.539 3.742 3.742 0 0 0-5.325-1.26zM57.675 47.4a.4.4 0 0 0 .461.654c2.65-1.872 4.262.3 4.329.391a.4.4 0 0 0 .325.166.391.391 0 0 0 .232-.075.4.4 0 0 0 .094-.556 3.74 3.74 0 0 0-5.441-.58z"></path><path d="M89.686 44.526a18.846 18.846 0 1 0-37.691 0v26.468a21 21 0 0 0-2.216 2.885 13.358 13.358 0 0 0-9.712-7.855 13.89 13.89 0 0 0 4.357-10.064V43.273c2.891-2.452.8-7.348-.281-9.4-3.809-7.254-14.338-9.907-21.9-8.2C22.1 25.7 8.662 28.784 6.8 43.29c-1.4 10.854 1.941 14.715 7.55 18.45a7.964 7.964 0 0 0-3.15 1.06c-2.806 1.659-4.691 5-5.606 9.922-2.059 11.094-2.568 12.786-2.645 13.006a.8.8 0 0 0 .717 1.155.808.808 0 0 0 .354-.083 28.525 28.525 0 0 0 7.637-6.193 45.792 45.792 0 0 0-1.483 13.933.8.8 0 0 0 .068.3 4.32 4.32 0 0 0 1.437 2.923 2.817 2.817 0 0 0 1.987.714c.085 0 .174 0 .262-.011a.7.7 0 0 0 .123.014c.2.013.388.02.576.02 4.56 0 6.868-3.933 10.014-9.3 1.136-1.937 2.424-4.131 3.985-6.444a.8.8 0 0 0-.372-1.193 10.12 10.12 0 0 1-.886-.41l2.867-4.9a6.019 6.019 0 0 0 4.315-2.092c1.462-.221 7.39-1.387 7.809-5.741a11.213 11.213 0 0 1 6.255 6.895 2.021 2.021 0 0 1 .1.578.889.889 0 0 0 .007.089l2.688 19.226a.8.8 0 0 0 .791.69.829.829 0 0 0 .111-.008.8.8 0 0 0 .682-.9l-1.091-7.8 4.634-4.729a.8.8 0 1 0-1.143-1.119l-3.77 3.847-1.277-9.135c3.14-5.6 6.681-7 7.934-7.323l1.561 2.682a5.619 5.619 0 0 0 4.591 2.783l6.585 11.262-.508.316c-.017.01-.025.027-.041.038a.765.765 0 0 0-.143.135.87.87 0 0 0-.069.091.788.788 0 0 0-.076.17.747.747 0 0 0-.03.115.879.879 0 0 0 .012.312.693.693 0 0 0 .01.078 33.572 33.572 0 0 0 3.341 7.1 8.765 8.765 0 0 0 8.1 4.446q.664 0 1.385-.06a8.376 8.376 0 0 0 7.943-8.568 44.523 44.523 0 0 0-1.253-9.505zM42.824 55.96a12.269 12.269 0 0 1-2.617 7.548v-.014a2.005 2.005 0 0 0-.936-1.233 2.054 2.054 0 0 0-.4-.178l.446-.766a1.976 1.976 0 0 0 .222-1.529 2.01 2.01 0 0 0-1.341-1.43l.118-.2a2.084 2.084 0 0 0 .22-1.535 2 2 0 0 0-1.886-1.5 62.912 62.912 0 0 0-1.024-3.395.4.4 0 1 0-.758.254c.007.02.562 1.679.989 3.271a2.031 2.031 0 0 0-1.044.871l-.114.2a1.982 1.982 0 0 0-.344-.251 2.051 2.051 0 0 0-2.775.733l-1.557 2.692a1.934 1.934 0 0 0-.334-.249 2.017 2.017 0 0 0-2.777.721l-3.475 5.97a12.592 12.592 0 0 1-1.524-1.3c-.015-.015-.032-.029-.048-.043-.151-.153-.287-.316-.429-.474-.128-.143-.263-.28-.383-.427-.137-.168-.257-.345-.384-.518-.11-.15-.228-.3-.33-.449-.121-.182-.225-.372-.336-.559-.092-.155-.192-.306-.277-.465-.105-.2-.192-.4-.285-.6-.073-.157-.156-.31-.222-.47-.088-.214-.158-.435-.234-.653-.054-.156-.117-.307-.165-.465-.072-.236-.123-.478-.18-.718-.035-.146-.079-.288-.109-.436-.052-.261-.083-.528-.117-.793-.018-.131-.045-.26-.058-.392q-.058-.6-.059-1.208v-7.223c7.15-.063 14.72-6.509 17-8.61.972 1.251 3.1 3.628 5.522 4.1a4.549 4.549 0 0 0 .787.077h.126a4.056 4.056 0 0 0 .732-.075c.041-.008.082-.019.124-.028.079-.018.159-.031.237-.054zM20.587 76.5c-.254-.2-.413-.327-.415-.329a.8.8 0 0 0-1.061.049 33.827 33.827 0 0 0-6.938 9.815c1.2-8.893 4.737-13.386 7.6-15.608a7.038 7.038 0 0 0 2.68 3.16zm2.71-4.272a5.613 5.613 0 0 1-2.178-2.73 11.7 11.7 0 0 1 1.446-.74 6.356 6.356 0 0 0 .735 3.468zM16.7 55.96v.723a3.137 3.137 0 0 1 0-6.066zM8.381 43.494c1.709-13.273 13.7-16.147 14.2-16.262a20.2 20.2 0 0 1 4.4-.469c6.186 0 12.968 2.574 15.741 7.854.718 1.368 2.872 5.96.445 7.62a2.584 2.584 0 0 1-1.5.484 2.86 2.86 0 0 1-.545-.054c-2.593-.5-5.03-4.143-5.055-4.18a.8.8 0 0 0-1.231-.125c-.094.093-9.417 9.282-17.291 8.764a.8.8 0 0 0-.852.8v1.062a4.731 4.731 0 0 0 .207 9.358l.047.249c.016.083.03.142.045.214.079.375.17.747.28 1.114l.022.08c.116.381.254.755.4 1.125.03.074.059.148.09.221.138.324.283.645.446.959-7.33-4.521-11.347-7.128-9.849-18.814zM4.924 84.4c.416-1.824 1.09-5.171 2.243-11.383.823-4.435 2.446-7.4 4.823-8.823a6.513 6.513 0 0 1 3.359-.908 6.855 6.855 0 0 1 1.14.094C16.69 75.293 8.487 82.035 4.924 84.4zm13.164-20.3c.884.545 1.8 1.114 2.762 1.734a14.033 14.033 0 0 0 1.522 1.281 14.965 14.965 0 0 0-5.2 3.5 25.014 25.014 0 0 0 .916-6.515zm5.173 24.3c-3.206 5.464-5.138 8.764-9.134 8.485a.648.648 0 0 0-.086-.01h-.038l-.088-.01-.047-.007-.077-.012-.062-.012-.079-.016-.071-.018-.084-.023-.076-.026a1.526 1.526 0 0 1-.169-.068c-.027-.013-.058-.025-.088-.041l-.084-.047c-.028-.016-.059-.033-.088-.052s-.057-.04-.086-.061-.058-.042-.087-.065-.055-.05-.082-.075-.058-.052-.086-.081-.053-.06-.079-.09-.056-.063-.083-.1-.049-.071-.073-.106-.053-.076-.078-.119-.044-.081-.065-.123-.05-.09-.073-.141-.037-.093-.056-.139-.045-.108-.065-.167-.031-.108-.047-.162-.037-.123-.053-.19-.026-.13-.038-.194-.029-.134-.04-.207c-.014-.094-.023-.2-.033-.3-.005-.052-.013-.1-.017-.153-.29-3.791 2.575-10.788 7.883-16.2.162.127.354.276.571.443a56.164 56.164 0 0 0 5.556 3.857q.483.276.913.491c-1.353 2.054-2.492 3.997-3.511 5.733zm6.547-13.738H29.8a4.713 4.713 0 0 1-2.172-.959.8.8 0 1 0-1 1.252 6.338 6.338 0 0 0 1.908 1.033l-2.562 4.381-.116-.073q-.327-.207-.681-.441l-.167-.11q-.42-.282-.874-.6l-.19-.135q-.4-.28-.818-.585l-.193-.14c-.323-.236-.656-.484-1-.74l-.083-.064L24.92 72.7a.8.8 0 0 0 0-.867 4.8 4.8 0 0 1-.548-4.066 3.5 3.5 0 0 1 .136-.385 3.4 3.4 0 0 1 .291-.6l3.5-6.011a.426.426 0 0 1 .26-.2.417.417 0 0 1 .323.05.45.45 0 0 1 .2.266.417.417 0 0 1-.038.307v.005l-1.337 2.29a.8.8 0 0 0 1.382.807l1.348-2.31v-.005l2.526-4.361a.444.444 0 0 1 .6-.164.437.437 0 0 1 .2.278.341.341 0 0 1-.025.266l-.159.273-3.677 6.313a.8.8 0 1 0 1.383.8l3.823-6.586v-.006l1.092-1.87a.44.44 0 0 1 .585-.164.411.411 0 0 1 .2.241.477.477 0 0 1-.048.346l-1.109 1.917-3.911 6.706a.8.8 0 1 0 1.382.806l3.91-6.706a.431.431 0 0 1 .59-.149.393.393 0 0 1 .189.251.418.418 0 0 1-.04.322l-3.726 6.392v.005l-.115.192a.8.8 0 0 0 1.372.824l.115-.192h.005l2.288-3.915a.421.421 0 0 1 .259-.2.413.413 0 0 1 .321.045.419.419 0 0 1 .189.257.414.414 0 0 1-.043.318l-4.792 8.241a4.421 4.421 0 0 1-4.013 2.195zm10.977-6.808c.057 2.656-2.986 3.891-5 4.418l2.84-4.883a12.827 12.827 0 0 1 2.162.455zM53.6 69.477V44.526a17.246 17.246 0 1 1 34.491 0V75.41c-2.886-6.515-7.164-8.792-9.1-9.515a13.786 13.786 0 0 0 3.749-7.3 4.732 4.732 0 0 0 .218-9.36v-1.059a.8.8 0 0 0-.74-.8c-4.788-.363-6.253-2.145-7.546-3.717a6.024 6.024 0 0 0-2.292-1.988.8.8 0 0 0-1.01.365c-.821 1.547-3.937 1.918-5.883 1.944a10.355 10.355 0 0 0 .156-2.384.8.8 0 0 0-1.244-.636 11.594 11.594 0 0 1-8.184 1.407.8.8 0 0 0-.984.779v13.065a13.642 13.642 0 0 0 .936 4.945c-.014.008-.029.012-.043.02a1.887 1.887 0 0 0-.888 1.175 1.857 1.857 0 0 0 .187 1.462l2.023 3.487a11.623 11.623 0 0 0-3.846 2.177zm18.563 2.9l-1.243-1.945a5.635 5.635 0 0 0 .247-.53 13.75 13.75 0 0 0 3.684-1.1 3.043 3.043 0 0 1-.245.808 7.857 7.857 0 0 1-2.448 2.771zm-.572-4.165a6.025 6.025 0 0 0 .018-.828c0-.068-.007-.136-.012-.2a5.891 5.891 0 0 0-.111-.815 5.844 5.844 0 0 0-.239-.794 7.73 7.73 0 0 0-.075-.194 5.969 5.969 0 0 0-.365-.756L67.583 59.1a2 2 0 0 0-.219-.314 1.86 1.86 0 0 0-1.4-.656c-.016 0-.031-.006-.047-.006s-.053.009-.081.01a1.854 1.854 0 0 0-.34.046c-.041.01-.082.017-.123.03a1.833 1.833 0 0 0-.421.179 1.882 1.882 0 0 0-.274.19l-1.219-2.1a.4.4 0 0 0 .141-.22c.425-1.773 1.176-4.011 1.183-4.033a.4.4 0 1 0-.758-.255c-.007.021-.676 2.015-1.117 3.753a1.932 1.932 0 0 0-.829-.454 1.868 1.868 0 0 0-1.414.2 1.888 1.888 0 0 0-.293.2l-.069-.118a1.942 1.942 0 0 0-1.908-.948l3.57-1.665a.8.8 0 0 0 .066-1.415l-3.142-1.844a.8.8 0 0 0-.809 1.38l1.828 1.073-2.328 1.086a.8.8 0 0 0 .316 1.521 1.955 1.955 0 0 0-.228.105 1.983 1.983 0 0 0-.3.212c-.031.026-.056.056-.085.083a2.085 2.085 0 0 0-.164.176c-.028.035-.052.072-.078.109a1.828 1.828 0 0 0-.116.188c-.021.04-.04.08-.059.121s-.03.056-.041.086V44.092a13.228 13.228 0 0 0 7.181-1.071 4.162 4.162 0 0 1-.29 1.329.8.8 0 0 0 .636 1.208c.634.04 5.838.29 7.949-2.088a7.852 7.852 0 0 1 1.129 1.207c1.284 1.562 3.022 3.674 7.922 4.227V56.235a12.2 12.2 0 0 1-3.546 8.587.79.79 0 0 0-.067.06 12.368 12.368 0 0 1-6.153 3.334zm-14.68-10.555a12.469 12.469 0 0 1-.035-.338c.026.057.055.114.087.169l.07.121c-.041.014-.081.031-.122.048zm26.041-1.422v-5.367a3.136 3.136 0 0 1 0 6.065zM61.22 70.6l-4.427-7.607a.3.3 0 0 1-.018-.221.338.338 0 0 1 .152-.214.276.276 0 0 1 .214-.027.315.315 0 0 1 .226.157l1.913 3.258a.8.8 0 0 0 1.381-.808l-3.25-5.578a.282.282 0 0 1-.026-.221.337.337 0 0 1 .136-.2.378.378 0 0 1 .13-.044.337.337 0 0 1 .244.059.316.316 0 0 1 .045.051.276.276 0 0 1 .043.047c0 .007.011.011.016.018l3.592 6.159a.8.8 0 1 0 1.382-.806l-3.6-6.176c0-.008-.012-.011-.016-.018l-1.006-1.74a.353.353 0 0 1-.032-.28.322.322 0 0 1 .39-.212.348.348 0 0 1 .212.158l1 1.717v.01l3.534 6.068a.8.8 0 0 0 .692.4.789.789 0 0 0 .4-.109.8.8 0 0 0 .289-1.094l-3.385-5.815-.14-.24v-.009a.314.314 0 0 1-.024-.214.337.337 0 0 1 .175-.21.3.3 0 0 1 .228-.031.329.329 0 0 1 .2.149L64.233 61c.006.009.016.014.021.023l-.008.006 1.231 2.108a.8.8 0 0 0 1.382-.807l-1.232-2.111v-.01a.331.331 0 0 1-.041-.209.357.357 0 0 1 .171-.227.319.319 0 0 1 .243-.036.311.311 0 0 1 .193.159l3.225 5.531a4.4 4.4 0 0 1 .212.409 4.347 4.347 0 0 1 .172 3.123 4.01 4.01 0 0 1-.495 1.052.8.8 0 0 0-.006.872l7.141 11.171-4.07 2.546-6.255-10.7a5.863 5.863 0 0 0 1.7-.936.8.8 0 0 0-1-1.252 4.245 4.245 0 0 1-1.986.873A4.046 4.046 0 0 1 61.22 70.6zm21.644 26c-3.872.32-6.119-.7-8.007-3.654a31.358 31.358 0 0 1-2.952-6.163l.615-.382 5.454-3.416.072-.045 1.943 2.225-.077 2.055a.8.8 0 0 0 .769.83h.031a.8.8 0 0 0 .8-.77l.185-4.937a.8.8 0 0 0-1.6-.06l-.021.549-1.273-1.459a.8.8 0 0 0-1.006-.161l-4.78-7.479c1.34-.923 3.815-3.31 3.417-5.794a13.9 13.9 0 0 0 1.154-.809c.027.008.049.026.077.032.11.022 11.029 2.475 11.672 22.52a6.8 6.8 0 0 1-6.473 6.918z"></path><path d="M43.026 83.116a.8.8 0 0 0-.8.8V95.1a.8.8 0 1 0 1.6 0V83.916a.8.8 0 0 0-.8-.8zM72.6 51.557a.8.8 0 0 0-1.036-.453L67.752 52.6a.8.8 0 0 0-.156 1.408l3.813 2.574a.8.8 0 0 0 .895-1.326l-2.55-1.722 2.394-.937a.8.8 0 0 0 .452-1.04zM24.9 21.845h13.528l.764 5.729a.8.8 0 0 0 1.489.289l3.41-6.018h.374a10.315 10.315 0 0 0 2.059-.229 10.122 10.122 0 0 0 4.909 2.53l5.821 4.629a.8.8 0 0 0 1.286-.77l-.668-3.656h15.113a10.176 10.176 0 0 0 0-20.349H53.433a10.464 10.464 0 0 0-2.074.23 10.076 10.076 0 0 0-6.894-2.73H24.9a10.172 10.172 0 1 0 0 20.344zM72.985 5.6a8.576 8.576 0 1 1 0 17.152H56.913a.8.8 0 0 0-.787.944l.457 2.5-4.308-3.426a.8.8 0 0 0-.355-.161 8.53 8.53 0 0 1-4.564-2.409 19.432 19.432 0 0 1-.46-.5 8.677 8.677 0 0 1-.873-1.235l-.014-.026a8.822 8.822 0 0 1-.336-.638c-.028-.06-.049-.122-.076-.182a8.695 8.695 0 0 1-.214-.509c-.028-.076-.048-.155-.074-.232-.053-.159-.109-.318-.154-.48-.03-.111-.05-.223-.075-.335-.03-.132-.066-.262-.089-.395-.033-.18-.053-.362-.074-.544-.007-.067-.02-.132-.026-.2q-.034-.375-.034-.753c0-.244.01-.487.031-.727a8.6 8.6 0 0 1 6.421-7.585 8.875 8.875 0 0 1 2.124-.259zM24.9 3.1h19.565a8.472 8.472 0 0 1 5.07 1.672c-.045.019-.087.041-.132.06-.1.045-.2.093-.3.141a10.493 10.493 0 0 0-.725.375 9.455 9.455 0 0 0-.4.243c-.093.06-.186.119-.277.182-.132.09-.259.183-.386.279-.084.064-.17.127-.253.193-.13.1-.256.216-.38.327-.072.064-.146.125-.216.191-.144.136-.283.278-.419.422-.044.047-.091.09-.134.138a10.35 10.35 0 0 0-.506.6c-.039.05-.073.1-.111.153-.092.122-.183.245-.27.371H21.52a.8.8 0 0 0 0 1.6h22.612c-.028.064-.051.13-.078.194q-.09.214-.17.433-.059.156-.111.315c-.049.148-.093.3-.136.45-.029.106-.059.211-.085.319a7.015 7.015 0 0 0-.1.479c-.02.1-.042.205-.059.309a9.627 9.627 0 0 0-.068.541c-.01.088-.023.175-.031.264-.021.272-.034.545-.034.821s.014.572.038.855c.008.092.023.183.033.275.022.191.045.382.077.571.019.107.044.214.066.32.035.172.071.344.116.513.028.111.062.219.094.329a8.82 8.82 0 0 0 .278.81 9.994 9.994 0 0 0 .754 1.537c.093.156.194.308.3.46.059.087.116.176.178.261.025.034.046.071.071.1q-.4.038-.793.037h-.84a.8.8 0 0 0-.7.406L40.463 25l-.541-4.062a.8.8 0 0 0-.793-.7H24.9a8.572 8.572 0 1 1 0-17.138z"></path><path d="M50.383 12.048a.8.8 0 0 0 .8.8h23.6a.8.8 0 0 0 0-1.6h-23.6a.8.8 0 0 0-.8.8zM21.52 15.248h17.951a.8.8 0 0 0 0-1.6H21.52a.8.8 0 0 0 0 1.6zM69.484 15.673h-18.3a.8.8 0 1 0 0 1.6h18.3a.8.8 0 1 0 0-1.6zM72.02 16.473a.8.8 0 0 0 .8.8h4.731a.8.8 0 1 0 0-1.6H72.82a.8.8 0 0 0-.8.8zM91.454 72.387a.8.8 0 0 0-.128 1.124 5.894 5.894 0 0 1 .391 6.757.8.8 0 1 0 1.359.844 7.5 7.5 0 0 0-.5-8.6.8.8 0 0 0-1.122-.125z"></path><path d="M95.438 72.731a.8.8 0 0 0-1.2 1.06 5.18 5.18 0 0 1 .658 5.916.8.8 0 0 0 1.4.771 6.784 6.784 0 0 0-.858-7.747zM45.339 60.69a.8.8 0 0 0 .282-.052L49.95 59a.8.8 0 0 0-.565-1.5l-4.329 1.634a.8.8 0 0 0 .283 1.549zM45.135 62.851l4.614.353h.061a.8.8 0 0 0 .06-1.6l-4.613-.352a.8.8 0 0 0-.122 1.595z"></path></g><!----></svg>