<svg data-v-423bf9ae="" xmlns="http://www.w3.org/2000/svg" viewBox="0 0 407.491481790947 60" class="font"><!----><!----><!----><g data-v-423bf9ae="" id="7feef5f2-9e8c-4803-8a58-6886dec37727" fill="black" transform="matrix(4.101162231157369,0,0,4.101162231157369,-2.29665414245207,-14.805195725205174)"><path d="M5.03 15.12C5.03 15.99 4.70 16.23 4.23 16.23C3.58 16.23 3.36 15.97 3.32 15.33L0.73 15.33C0.73 17.05 1.54 18.24 4.14 18.24C6.30 18.24 7.74 17.29 7.74 14.90L7.74 6.85L5.18 6.85L5.07 7.34C4.72 6.97 4.19 6.68 3.28 6.68C1.89 6.68 0.56 7.80 0.56 9.98L0.56 11.42C0.56 13.69 1.68 14.87 3.56 14.87C4.21 14.87 4.68 14.71 5.03 14.41ZM5.03 11.47C5.03 12.25 4.77 12.49 4.16 12.49C3.54 12.49 3.29 12.25 3.29 11.47L3.29 10.08C3.29 9.34 3.58 9.06 4.16 9.06C4.70 9.06 5.03 9.32 5.03 10.07ZM11.73 10.08C11.73 9.30 11.98 9.06 12.60 9.06C13.22 9.06 13.47 9.30 13.47 10.08L13.47 12.17C13.47 12.95 13.22 13.19 12.60 13.19C11.98 13.19 11.73 12.95 11.73 12.17ZM12.60 6.68C10.16 6.68 9.00 7.85 9.00 10.12L9.00 12.12C9.00 14.39 10.16 15.57 12.60 15.57C15.04 15.57 16.20 14.39 16.20 12.12L16.20 10.12C16.20 7.85 15.04 6.68 12.60 6.68ZM21.15 10.02C20.09 9.88 19.99 9.62 19.99 9.28C19.99 8.90 20.26 8.67 20.73 8.67C21.35 8.67 21.62 9.03 21.62 9.59L24.11 9.59C24.11 7.71 23.04 6.68 20.82 6.68C18.84 6.68 17.40 7.56 17.40 9.39C17.40 11.20 18.47 11.89 20.54 12.12C21.52 12.24 21.57 12.52 21.57 12.92C21.57 13.31 21.29 13.58 20.82 13.58C20.17 13.58 19.85 13.30 19.81 12.66L17.22 12.66C17.22 14.38 18.28 15.57 20.64 15.57C22.79 15.57 24.23 14.63 24.23 12.74C24.23 10.88 22.79 10.23 21.15 10.02ZM29.08 10.02C28.01 9.88 27.92 9.62 27.92 9.28C27.92 8.90 28.18 8.67 28.66 8.67C29.27 8.67 29.54 9.03 29.54 9.59L32.03 9.59C32.03 7.71 30.97 6.68 28.74 6.68C26.77 6.68 25.33 7.56 25.33 9.39C25.33 11.20 26.39 11.89 28.46 12.12C29.44 12.24 29.50 12.52 29.50 12.92C29.50 13.31 29.22 13.58 28.74 13.58C28.10 13.58 27.78 13.30 27.73 12.66L25.14 12.66C25.14 14.38 26.21 15.57 28.56 15.57C30.72 15.57 32.16 14.63 32.16 12.74C32.16 10.88 30.72 10.23 29.08 10.02ZM36.02 6.85L33.31 6.85L33.31 15.40L36.02 15.40ZM36.02 3.61L33.31 3.61L33.31 6.02L36.02 6.02ZM41.89 6.68C41.02 6.68 40.38 6.93 39.90 7.43L39.77 6.85L37.42 6.85L37.42 18.10L40.12 18.10L40.12 15.15C40.49 15.41 40.99 15.57 41.69 15.57C43.27 15.57 44.60 14.45 44.60 12.26L44.60 10.12C44.60 7.85 43.60 6.68 41.89 6.68ZM40.14 10.08C40.14 9.30 40.39 9.06 41.01 9.06C41.62 9.06 41.87 9.30 41.87 10.08L41.87 12.17C41.87 12.91 41.58 13.19 41.01 13.19C40.46 13.19 40.14 12.92 40.14 12.18ZM49.83 6.85L48.79 12.56L48.16 6.85L45.28 6.85L47.17 15.40L50.09 15.40L51.00 10.51L51.91 15.40L54.85 15.40L56.74 6.85L54.01 6.85L53.38 12.56L52.40 6.85ZM60.30 6.85L57.58 6.85L57.58 15.40L60.30 15.40ZM60.30 3.61L57.58 3.61L57.58 6.02L60.30 6.02ZM65.30 13.10C64.62 13.10 64.41 12.82 64.41 12.00L64.41 9.77L65.81 9.77L65.81 7.41L64.41 7.41L64.41 5.47L61.63 5.47L61.63 11.90C61.63 14.36 62.34 15.57 64.61 15.57C65.11 15.57 65.62 15.51 65.80 15.47L65.80 13.06C65.67 13.09 65.46 13.10 65.30 13.10ZM69.86 4.59L67.14 4.59L67.14 15.40L69.86 15.40L69.86 10.11C69.86 9.32 70.14 9.06 70.69 9.06C71.26 9.06 71.50 9.34 71.50 10.08L71.50 15.40L74.21 15.40L74.21 9.77C74.21 7.62 73.32 6.68 71.68 6.68C70.91 6.68 70.31 6.85 69.86 7.22ZM78.48 12.70L75.84 12.70L75.84 15.40L78.48 15.40ZM84.71 6.68C83.85 6.68 83.12 6.89 82.63 7.45L82.49 6.85L80.14 6.85L80.14 15.40L82.85 15.40L82.85 10.07C82.85 9.32 83.13 9.06 83.68 9.06C84.25 9.06 84.49 9.34 84.49 10.08L84.49 15.40L87.21 15.40L87.21 10.07C87.21 9.32 87.49 9.06 88.03 9.06C88.61 9.06 88.84 9.34 88.84 10.08L88.84 15.40L91.56 15.40L91.56 9.77C91.56 7.52 90.68 6.68 88.80 6.68C87.79 6.68 87.02 7.01 86.55 7.59C86.13 6.94 85.47 6.68 84.71 6.68ZM97.36 12.60C97.29 13.15 97.09 13.52 96.35 13.52C95.73 13.52 95.42 13.12 95.42 12.42L95.42 11.82L99.92 11.82L99.92 10.02C99.92 7.71 98.71 6.68 96.36 6.68C93.93 6.68 92.75 8.02 92.75 9.98L92.75 12.08C92.75 14.49 93.93 15.57 96.36 15.57C98.85 15.57 99.76 14.50 99.85 12.60ZM96.39 8.68C97.01 8.68 97.36 8.97 97.36 9.74L97.36 10.11L95.42 10.11L95.42 9.79C95.42 8.99 95.73 8.68 96.39 8.68Z"></path></g><!----><!----></svg>